# xmcd CD database file
#
# Track frame offsets:
#	150
#	9895
#	22172
#	46220
#	60125
#	74022
#	95410
#	109550
#	139600
#	161227
#	185700
#	210662
#	234000
#	266567
#
# Disc length: 3697 seconds
#
# Revision: 5
# Processed by: cddbd v1.5.2PL0 Copyright (c) Steve Scherf et al.
# Submitted via: CDex 1.51
#
DISCID=b70e6f0e
DTITLE=Stevie Ray Vaughan - Live At Carnegie Hall
DYEAR=1997
DGENRE=Blues
TTITLE0=Intro - Ken Dashow/John Hammond (LIVE)
TTITLE1=Scuttle Buttin' (LIVE)
TTITLE2=Testifyin' (LIVE)
TTITLE3=Love Struck Baby (LIVE)
TTITLE4=Honey Bee (LIVE)
TTITLE5=Cold Shot (LIVE)
TTITLE6=Letter To My Girl Friend (LIVE)
TTITLE7=Dirty Pool (LIVE)
TTITLE8=Pride And Joy (LIVE)
TTITLE9=Things That I Used To Do (LIVE)
TTITLE10=C.O.D. (LIVE)
TTITLE11=Iced Over (LIVE)
TTITLE12=Lenny (LIVE)
TTITLE13=Rude Mood (LIVE)
EXTD=YEAR: 1997
EXTT0=
EXTT1=
EXTT2=
EXTT3=
EXTT4=
EXTT5=
EXTT6=
EXTT7=
EXTT8=
EXTT9=
EXTT10=
EXTT11=
EXTT12=
EXTT13=
PLAYORDER=
